<?xml version="1.0" standalone="no"?><!DOCTYPE svg PUBLIC "-//W3C//DTD SVG 1.1//EN" "http://www.w3.org/Graphics/SVG/1.1/DTD/svg11.dtd"><svg t="1506136745731" class="icon" style="" viewBox="0 0 1024 1024" version="1.1" xmlns="http://www.w3.org/2000/svg" p-id="1761" xmlns:xlink="http://www.w3.org/1999/xlink" width="128" height="128"><defs><style type="text/css"></style></defs><path d="M511.4 449.2m-423.4 0a423.4 423.4 0 1 0 846.8 0 423.4 423.4 0 1 0-846.8 0Z" fill="#F2CF3D" p-id="1762"></path><path d="M511.4 882.6c-58.5 0-115.3-11.5-168.7-34.1-51.6-21.8-98-53.1-137.8-92.9-39.8-39.8-71-86.1-92.9-137.8-22.6-53.4-34.1-110.2-34.1-168.7S89.4 333.9 112 280.5c21.8-51.6 53.1-98 92.9-137.8s86.1-71 137.8-92.9c53.4-22.6 110.2-34.1 168.7-34.1 58.5 0 115.3 11.5 168.7 34.1 51.6 21.8 98 53.1 137.8 92.9 39.8 39.8 71 86.1 92.9 137.8 22.6 53.4 34.1 110.2 34.1 168.7s-11.5 115.3-34.1 168.7c-21.8 51.6-53.1 98-92.9 137.8-39.8 39.8-86.1 71-137.8 92.9-53.5 22.5-110.2 34-168.7 34z m0-846.8c-55.8 0-110 10.9-160.9 32.5-49.3 20.8-93.5 50.6-131.5 88.6-38 38-67.8 82.2-88.6 131.4-21.6 51-32.5 105.1-32.5 160.9s10.9 110 32.5 160.9c20.8 49.2 50.6 93.4 88.6 131.4 38 38 82.2 67.8 131.4 88.6 51 21.6 105.1 32.5 160.9 32.5s110-10.9 160.9-32.5c49.2-20.8 93.4-50.6 131.4-88.6 38-38 67.8-82.2 88.6-131.4 21.6-51 32.5-105.1 32.5-160.9s-10.9-110-32.5-160.9c-20.8-49.2-50.6-93.4-88.6-131.4-38-38-82.2-67.8-131.4-88.6-50.9-21.6-105-32.5-160.8-32.5z" fill="#231815" p-id="1763"></path><path d="M511.4 415.2m-389.5 0a389.5 389.5 0 1 0 779 0 389.5 389.5 0 1 0-779 0Z" fill="#FFE20D" p-id="1764"></path><path d="M511.4 882.6c-58.5 0-115.3-11.5-168.7-34.1-51.6-21.8-98-53.1-137.8-92.9-39.8-39.8-71-86.1-92.9-137.8-22.6-53.4-34.1-110.2-34.1-168.7S89.4 333.9 112 280.5c21.8-51.6 53.1-98 92.9-137.8s86.1-71 137.8-92.9c53.4-22.6 110.2-34.1 168.7-34.1 58.5 0 115.3 11.5 168.7 34.1 51.6 21.8 98 53.1 137.8 92.9 39.8 39.8 71 86.1 92.9 137.8 22.6 53.4 34.1 110.2 34.1 168.7s-11.5 115.3-34.1 168.7c-21.8 51.6-53.1 98-92.9 137.8-39.8 39.8-86.1 71-137.8 92.9-53.5 22.5-110.2 34-168.7 34z m0-846.8c-55.8 0-110 10.9-160.9 32.5-49.3 20.8-93.5 50.6-131.5 88.6-38 38-67.8 82.2-88.6 131.4-21.6 51-32.5 105.1-32.5 160.9s10.9 110 32.5 160.9c20.8 49.2 50.6 93.4 88.6 131.4 38 38 82.2 67.8 131.4 88.6 51 21.6 105.1 32.5 160.9 32.5s110-10.9 160.9-32.5c49.2-20.8 93.4-50.6 131.4-88.6 38-38 67.8-82.2 88.6-131.4 21.6-51 32.5-105.1 32.5-160.9s-10.9-110-32.5-160.9c-20.8-49.2-50.6-93.4-88.6-131.4-38-38-82.2-67.8-131.4-88.6-50.9-21.6-105-32.5-160.8-32.5z" fill="#231815" p-id="1765"></path><path d="M376.9 127.6a134.5 43.5 0 1 0 269 0 134.5 43.5 0 1 0-269 0Z" fill="#FFF0B3" p-id="1766"></path><path d="M511.4 618c-68.5 0-132.6-8.1-187.7-22.3-19.9-5.1-38.7 11.8-34.4 31.2 21.8 99 113 173.2 222.2 173.2s200.3-74.2 222-173.1c4.3-19.4-14.6-36.3-34.4-31.2-55.2 14.1-119.3 22.2-187.7 22.2z" fill="#FFA6D7" p-id="1767"></path><path d="M511.4 810.2c-54.6 0-107.9-18.3-150.1-51.6-41.7-32.9-70.7-78.9-81.9-129.4-2.7-12.2 1.2-24.7 10.3-33.5 9.7-9.3 23.3-12.9 36.4-9.6 56 14.4 120.1 22 185.3 22 65.2 0 129.3-7.6 185.3-22 13.1-3.4 26.7 0.2 36.4 9.6 9.1 8.8 13 21.3 10.3 33.5-11.1 50.5-40.2 96.5-81.9 129.4-42.2 33.2-95.5 51.6-150.1 51.6z m-195-205.4c-4.7 0-9.3 1.8-12.8 5.2-4.2 4-5.9 9.4-4.7 14.8 10.1 46 36.7 88 74.7 118 38.7 30.5 87.6 47.3 137.7 47.3 50.1 0 99-16.8 137.7-47.3 38.1-30 64.6-72 74.7-118 1.2-5.4-0.5-10.8-4.7-14.8-4.6-4.5-11.2-6.2-17.5-4.6C644 620.2 578.2 628 511.4 628c-66.9 0-132.6-7.8-190.2-22.6-1.7-0.4-3.2-0.6-4.8-0.6z" fill="#231815" p-id="1768"></path><path d="M657.5 748.8c-39.5-32-90.4-51.3-146.1-51.3s-106.6 19.3-146.1 51.3c39.5 32 90.4 51.3 146.1 51.3s106.6-19.3 146.1-51.3z" fill="#FF66C1" p-id="1769"></path><path d="M511.4 810.2c-55.7 0-109.8-19-152.4-53.6-2.3-1.9-3.7-4.8-3.7-7.8s1.4-5.9 3.7-7.8c42.6-34.5 96.7-53.6 152.4-53.6s109.8 19 152.4 53.6c2.3 1.9 3.7 4.8 3.7 7.8s-1.4 5.9-3.7 7.8c-42.6 34.5-96.8 53.6-152.4 53.6z m-129.7-61.4c37.3 26.7 82.9 41.3 129.6 41.3s92.3-14.6 129.6-41.3c-37.3-26.7-82.9-41.3-129.6-41.3-46.7 0-92.2 14.6-129.6 41.3z" fill="#231815" p-id="1770"></path><path d="M229.3 554.2a50.1 31 0 1 0 100.2 0 50.1 31 0 1 0-100.2 0Z" fill="#FFA178" p-id="1771"></path><path d="M693.3 554.2a50.1 31 0 1 0 100.2 0 50.1 31 0 1 0-100.2 0Z" fill="#FFA178" p-id="1772"></path><path d="M180.8 966.9a330.6 33.8 0 1 0 661.2 0 330.6 33.8 0 1 0-661.2 0Z" fill="#E5E5E5" p-id="1773"></path><path d="M665.2 742.3l-108.8 54.8c0 0.1-0.1 0.2-0.2 0.3v146.4c0 10.7 7.7 20.4 19 22.6 15.5 3 29.3-8 29.3-21.9V809.6l60.7-67.3z" fill="#16CEF9" p-id="1774"></path><path d="M580.4 976.9c-2.3 0-4.7-0.2-7-0.7-15.7-3-27.1-16.7-27.1-32.4V797.4c0-1.6 0.4-3.1 1.1-4.5l0.2-0.3c1-1.9 2.5-3.5 4.4-4.5l108.8-54.8c4.3-2.2 9.5-1 12.4 2.9 2.9 3.8 2.7 9.2-0.5 12.8l-58.1 64.4v131.1c0 9.4-4.3 18.3-11.8 24.4-6.3 5.2-14.2 8-22.4 8z m-14.2-173.6v140.5c0 6.2 4.6 11.6 10.9 12.8 4.7 0.9 9.4-0.2 12.9-3.1 2.9-2.4 4.5-5.6 4.5-9V809.6c0-2.5 0.9-4.9 2.6-6.7l25-27.7-55.9 28.1z" fill="#231815" p-id="1775"></path><path d="M371.1 54.4c-33.9 9.8-60 33.2-74.4 62.6-27.9-17.1-62.5-22.9-96.3-13.1-63.9 18.5-100.7 85.3-82.2 149.1 18.5 63.9 237.1 184 268.5 174.9 31.4-9.1 152.1-227.4 133.6-291.3-18.6-63.9-85.4-100.7-149.2-82.2z" fill="#F97B67" p-id="1776"></path><path d="M382.8 438.4c-7.6 0-22.4-2.6-52.8-15.9-26.2-11.4-57.4-27.8-87.7-46.2C206.2 354.5 121 299 108.4 255.8c-20-69.1 20-141.5 89-161.5 31.7-9.2 65.8-5.8 95.2 9.1 16.9-28.4 44-49.4 75.7-58.6 33.5-9.7 68.7-5.8 99.2 11.1 30.5 16.8 52.6 44.5 62.3 78 12.5 43.3-29.9 135.7-48.8 173.4-15.8 31.7-33.4 62.2-49.5 85.9-27.2 40-38.5 43.3-42.2 44.3-1.1 0.3-3.1 0.9-6.5 0.9zM233.4 109.1c-10.2 0-20.4 1.4-30.4 4.3-58.5 16.9-92.3 78.3-75.4 136.8 7.2 24.8 54.9 66.5 124.4 108.7 29.4 17.9 59.7 33.9 85.2 45 37.4 16.4 46.5 14.4 46.6 14.4 0.1 0 8.8-3.2 31.7-37 15.6-23 32.6-52.7 48-83.5 36.3-72.8 54.3-133.5 47.1-158.3-8.2-28.3-26.9-51.8-52.8-66-25.8-14.2-55.7-17.6-84-9.4l-2.8-9.6 2.8 9.6c-29.6 8.6-54.5 29.5-68.3 57.4l-4.8 9.8-9.4-5.7c-17.5-10.9-37.7-16.5-57.9-16.5z" fill="#231815" p-id="1777"></path><path d="M407.3 179.7c-33.9 9.8-60 33.2-74.4 62.6-27.9-17.1-62.5-22.9-96.3-13.1-38.2 11-66.5 39.4-79.3 73.9 69.1 61.7 205.1 131.9 229.4 124.8 24.3-7 101.8-139 127.3-228.1-29.4-22.3-68.5-31.1-106.7-20.1z" fill="#FC4427" p-id="1778"></path><path d="M382.8 438.4c-7.6 0-22.4-2.6-52.8-15.9-26.2-11.4-57.4-27.8-87.7-46.2C206.2 354.5 121 299 108.4 255.8c-20-69.1 20-141.5 89-161.5 31.7-9.2 65.8-5.8 95.2 9.1 16.9-28.4 44-49.4 75.7-58.6 33.5-9.7 68.7-5.8 99.2 11.1 30.5 16.8 52.6 44.5 62.3 78 12.5 43.3-29.9 135.7-48.8 173.4-15.8 31.7-33.4 62.2-49.5 85.9-27.2 40-38.5 43.3-42.2 44.3-1.1 0.3-3.1 0.9-6.5 0.9zM233.4 109.1c-10.2 0-20.4 1.4-30.4 4.3-58.5 16.9-92.3 78.3-75.4 136.8 7.2 24.8 54.9 66.5 124.4 108.7 29.4 17.9 59.7 33.9 85.2 45 37.4 16.4 46.5 14.4 46.6 14.4 0.1 0 8.8-3.2 31.7-37 15.6-23 32.6-52.7 48-83.5 36.3-72.8 54.3-133.5 47.1-158.3-8.2-28.3-26.9-51.8-52.8-66-25.8-14.2-55.7-17.6-84-9.4l-2.8-9.6 2.8 9.6c-29.6 8.6-54.5 29.5-68.3 57.4l-4.8 9.8-9.4-5.7c-17.5-10.9-37.7-16.5-57.9-16.5z" fill="#231815" p-id="1779"></path><path d="M751.7 257.3c-16.6-9.2-35.5-10.2-52.1-4.5-4.1-17.1-15-32.5-31.7-41.7-31.3-17.3-70.7-5.9-88 25.5-17.3 31.3 20.2 160.2 35.6 168.7 15.4 8.5 144.4-28.6 161.7-60 17.2-31.4 5.8-70.8-25.5-88z" fill="#F97B67" p-id="1780"></path><path d="M623.2 416.5c-6.8 0-10.3-1.2-12.6-2.5-4.1-2.3-10-7.8-19-30.6-5.7-14.5-11.4-32.8-16-51.5-6.9-28-16.6-78.3-4.6-100.1 9.6-17.5 25.5-30.2 44.7-35.7 19.2-5.6 39.4-3.3 56.9 6.3 15.3 8.5 27.2 22.1 33.5 38.3 17.1-3.3 35-0.6 50.3 7.9 17.5 9.6 30.2 25.5 35.7 44.7s3.3 39.4-6.3 56.9c-12 21.8-59.7 40.4-87.1 49.6-18.3 6.1-36.8 11.1-52.1 14-10.5 1.9-18 2.7-23.4 2.7z m-2.8-20.1c6.8 1.1 35.8-3.3 74.8-16.6 46.8-16 68.7-31.2 73.2-39.3 7.1-12.8 8.7-27.6 4.6-41.7-4.1-14.1-13.4-25.7-26.2-32.8-13.4-7.4-29.5-8.8-44.1-3.8l-10.4 3.5-2.6-10.7c-3.6-15-13.4-27.8-26.8-35.2-12.8-7.1-27.6-8.7-41.7-4.6-14.1 4.1-25.7 13.4-32.8 26.2-4.5 8.2-5.7 34.8 5.8 82.9 9.9 40 21.7 66.9 26.2 72.1z" fill="#231815" p-id="1781"></path><path d="M717.8 318.7c-16.6-9.2-35.5-10.2-52.1-4.5-4.1-17.1-15-32.5-31.7-41.7-18.7-10.3-40.3-10.3-58.3-2.1 2.8 49.8 27.9 128.2 39.8 134.8 11.9 6.6 91.6-14.1 135.2-38.3-2.6-19.7-14.2-37.9-32.9-48.2z" fill="#FC4427" p-id="1782"></path><path d="M623.2 416.5c-6.8 0-10.3-1.2-12.6-2.5-4.1-2.3-10-7.8-19-30.6-5.7-14.5-11.4-32.8-16-51.5-6.9-28-16.6-78.3-4.6-100.1 9.6-17.5 25.5-30.2 44.7-35.7 19.2-5.6 39.4-3.3 56.9 6.3 15.3 8.5 27.2 22.1 33.5 38.3 17.1-3.3 35-0.6 50.3 7.9 17.5 9.6 30.2 25.5 35.7 44.7s3.3 39.4-6.3 56.9c-12 21.8-59.7 40.4-87.1 49.6-18.3 6.1-36.8 11.1-52.1 14-10.5 1.9-18 2.7-23.4 2.7z m-2.8-20.1c6.8 1.1 35.8-3.3 74.8-16.6 46.8-16 68.7-31.2 73.2-39.3 7.1-12.8 8.7-27.6 4.6-41.7-4.1-14.1-13.4-25.7-26.2-32.8-13.4-7.4-29.5-8.8-44.1-3.8l-10.4 3.5-2.6-10.7c-3.6-15-13.4-27.8-26.8-35.2-12.8-7.1-27.6-8.7-41.7-4.6-14.1 4.1-25.7 13.4-32.8 26.2-4.5 8.2-5.7 34.8 5.8 82.9 9.9 40 21.7 66.9 26.2 72.1z" fill="#231815" p-id="1783"></path></svg>